<svg width="32" height="33" viewBox="0 0 32 33" fill="none" xmlns="http://www.w3.org/2000/svg">
<path d="M27.75 16.64C27.8881 16.64 28.0003 16.752 27.9974 16.89C27.9531 19.0163 27.3444 21.0942 26.2317 22.91C25.0754 24.797 23.4198 26.3274 21.4479 27.3321C19.476 28.3368 17.2647 28.7767 15.0585 28.603C12.8523 28.4294 10.737 27.649 8.94658 26.3482C7.15617 25.0474 5.76036 23.2768 4.91345 21.2322C4.06655 19.1876 3.80154 16.9486 4.14774 14.7628C4.49394 12.577 5.43786 10.5295 6.87513 8.84666C8.25824 7.22725 10.0464 6.00625 12.0548 5.30709C12.1852 5.2617 12.3264 5.33381 12.3691 5.46512L15.4948 15.0853C15.7961 16.0124 16.66 16.64 17.6347 16.64H27.75Z" fill="white" stroke="white" stroke-width="1.5"/>
<path d="M17.1445 5.23674C17.1018 5.10542 17.1736 4.96395 17.3062 4.92578C18.3363 4.6295 19.4199 4.56235 20.4805 4.73034C21.6235 4.91138 22.7075 5.36037 23.6437 6.0406C24.58 6.72083 25.342 7.61298 25.8674 8.64412C26.3549 9.60094 26.6259 10.6522 26.6624 11.7234C26.6671 11.8614 26.5547 11.9734 26.4167 11.9734L20.2415 11.9734C19.7 11.9734 19.22 11.6247 19.0527 11.1097L17.1445 5.23674Z" fill="white" stroke="white" stroke-width="1.5"/>
</svg>
