<svg width="32" height="33" viewBox="0 0 32 33" fill="none" xmlns="http://www.w3.org/2000/svg">
<path d="M12.6667 28.64H6.66667V24.2876C6.66667 22.0378 6.66667 20.9129 7.23962 20.1243C7.42465 19.8696 7.64863 19.6456 7.90331 19.4606C8.69191 18.8876 9.81683 18.8876 12.0667 18.8876H12.6667V18.7734C12.6667 16.281 12.6667 15.0349 13.2026 14.1067C13.5536 13.4986 14.0586 12.9937 14.6667 12.6426C15.5949 12.1067 16.841 12.1067 19.3333 12.1067V7.64002C19.3333 5.98316 20.6765 4.64001 22.3333 4.64001C23.9902 4.64001 25.3333 5.98316 25.3333 7.64001V28.64H19.3333H12.6667Z" fill="white"/>
<path d="M28 28.64H25.3333M4 28.64H6.66667M19.3333 28.64H12.6667M19.3333 28.64V12.1067M19.3333 28.64H25.3333M12.6667 28.64H6.66667M12.6667 28.64V18.8876M6.66667 28.64V24.2876C6.66667 22.0378 6.66667 20.9129 7.23962 20.1243C7.42465 19.8696 7.64863 19.6456 7.90331 19.4606C8.69191 18.8876 9.81683 18.8876 12.0667 18.8876H12.6667M12.6667 18.8876V18.7734C12.6667 16.281 12.6667 15.0349 13.2026 14.1067C13.5536 13.4986 14.0586 12.9937 14.6667 12.6426C15.5949 12.1067 16.841 12.1067 19.3333 12.1067V12.1067M19.3333 12.1067V7.64002C19.3333 5.98316 20.6765 4.64001 22.3333 4.64001V4.64001C23.9902 4.64001 25.3333 5.98316 25.3333 7.64001V28.64" stroke="white" stroke-width="1.5" stroke-linecap="round"/>
</svg>
